<svg xmlns="http://www.w3.org/2000/svg" xmlns:xlink="http://www.w3.org/1999/xlink" width="1080" zoomAndPan="magnify" viewBox="0 0 810 809.999993" height="1080" preserveAspectRatio="xMidYMid meet" version="1.0"><defs><clipPath id="3e6450f117"><path d="M 116 117 L 680 117 L 680 681 L 116 681 Z M 116 117 " clip-rule="nonzero"/></clipPath><clipPath id="640507a31d"><path d="M -12.171875 385.835938 L 385.574219 -11.914062 L 822.039062 424.546875 L 424.289062 822.296875 Z M -12.171875 385.835938 " clip-rule="nonzero"/></clipPath><clipPath id="05fa4312f7"><path d="M -12.171875 385.835938 L 385.574219 -11.914062 L 822.039062 424.546875 L 424.289062 822.296875 Z M -12.171875 385.835938 " clip-rule="nonzero"/></clipPath><clipPath id="de7359b462"><path d="M 597.460938 199.53125 C 603.773438 205.84375 609.789062 212.464844 615.46875 219.351562 C 621.152344 226.242188 626.535156 233.382812 631.539062 240.785156 C 636.539062 248.1875 641.214844 255.820312 645.476562 263.664062 C 646.5625 265.597656 647.570312 267.609375 648.605469 269.589844 C 649.644531 271.570312 650.597656 273.589844 651.59375 275.59375 C 652.589844 277.597656 653.507812 279.640625 654.457031 281.667969 C 655.402344 283.695312 656.261719 285.757812 657.164062 287.804688 C 658.957031 291.996094 660.644531 296.230469 662.230469 300.503906 C 663.816406 304.777344 665.296875 309.085938 666.675781 313.433594 C 668.050781 317.777344 669.324219 322.152344 670.488281 326.5625 C 671.652344 330.96875 672.707031 335.402344 673.65625 339.859375 C 674.605469 344.316406 675.449219 348.796875 676.179688 353.296875 C 676.910156 357.792969 677.535156 362.308594 678.046875 366.839844 C 678.558594 371.367188 678.960938 375.90625 679.253906 380.457031 C 679.546875 385.003906 679.730469 389.558594 679.800781 394.117188 C 679.875 398.671875 679.835938 403.230469 679.683594 407.785156 C 679.535156 412.34375 679.277344 416.890625 678.90625 421.433594 C 678.535156 425.976562 678.054688 430.511719 677.464844 435.03125 C 676.875 439.550781 676.175781 444.054688 675.367188 448.539062 C 674.558594 453.023438 673.640625 457.488281 672.617188 461.929688 C 671.589844 466.371094 670.460938 470.785156 669.21875 475.171875 C 667.980469 479.558594 666.636719 483.914062 665.183594 488.234375 C 663.734375 492.554688 662.179688 496.839844 660.519531 501.085938 C 658.863281 505.332031 657.101562 509.535156 655.238281 513.695312 C 653.375 517.855469 651.414062 521.96875 649.351562 526.035156 C 647.289062 530.097656 645.132812 534.113281 642.875 538.074219 C 640.617188 542.03125 638.265625 545.9375 635.820312 549.78125 C 633.375 553.628906 630.835938 557.414062 628.207031 561.136719 C 625.574219 564.859375 622.855469 568.519531 620.050781 572.109375 C 617.242188 575.699219 614.347656 579.222656 611.371094 582.671875 C 608.394531 586.125 605.332031 589.5 602.191406 592.800781 C 599.050781 596.105469 595.828125 599.328125 592.53125 602.476562 C 589.230469 605.621094 585.859375 608.6875 582.410156 611.667969 C 578.964844 614.652344 575.445312 617.546875 571.859375 620.359375 C 568.269531 623.171875 564.617188 625.894531 560.898438 628.527344 C 557.175781 631.164062 553.394531 633.707031 549.550781 636.15625 C 545.710938 638.609375 541.808594 640.964844 537.851562 643.226562 C 533.894531 645.488281 529.882812 647.652344 525.820312 649.71875 C 521.757812 651.785156 517.648438 653.753906 513.488281 655.621094 C 496.363281 663.285156 478.648438 669.167969 460.335938 673.269531 C 459.199219 673.546875 458.039062 673.757812 456.902344 674.011719 L 453.460938 674.722656 C 451.167969 675.203125 448.847656 675.578125 446.546875 676.011719 C 444.242188 676.441406 441.910156 676.746094 439.59375 677.117188 C 437.273438 677.484375 434.941406 677.734375 432.617188 678.054688 C 430.292969 678.375 427.953125 678.5625 425.613281 678.816406 C 423.273438 679.074219 420.933594 679.214844 418.589844 679.40625 L 411.546875 679.8125 L 404.496094 680.042969 L 397.433594 680.101562 C 395.074219 680.050781 392.726562 680.039062 390.375 679.984375 C 388.019531 679.929688 385.667969 679.800781 383.316406 679.679688 C 380.960938 679.558594 378.609375 679.386719 376.261719 679.199219 C 373.914062 679.015625 371.5625 678.800781 369.21875 678.554688 C 366.875 678.3125 364.523438 678.046875 362.191406 677.734375 C 359.859375 677.421875 357.515625 677.101562 355.1875 676.722656 L 351.691406 676.144531 C 350.527344 675.949219 349.359375 675.773438 348.203125 675.539062 L 344.726562 674.878906 C 343.5625 674.660156 342.402344 674.445312 341.25 674.183594 L 337.773438 673.433594 C 336.621094 673.1875 335.464844 672.9375 334.324219 672.65625 C 329.738281 671.566406 325.167969 670.367188 320.621094 669.058594 C 311.515625 666.4375 302.570312 663.359375 293.78125 659.824219 C 276.128906 652.734375 259.371094 643.9375 243.511719 633.4375 C 235.609375 628.191406 227.972656 622.570312 220.605469 616.566406 C 213.265625 610.539062 206.234375 604.179688 199.507812 597.480469 C 186.050781 584.023438 174.0625 569.363281 163.542969 553.503906 C 158.292969 545.59375 153.460938 537.4375 149.050781 529.03125 C 147.914062 526.949219 146.890625 524.808594 145.820312 522.691406 C 144.75 520.578125 143.765625 518.421875 142.746094 516.277344 C 141.726562 514.136719 140.824219 511.941406 139.863281 509.777344 C 138.902344 507.609375 138.035156 505.40625 137.132812 503.21875 C 130.042969 485.609375 124.800781 467.46875 121.398438 448.792969 C 118 430.210938 116.484375 411.472656 116.859375 392.585938 C 117.234375 373.699219 119.488281 355.039062 123.617188 336.605469 C 127.703125 318.335938 133.566406 300.660156 141.210938 283.570312 C 148.855469 266.484375 158.125 250.328125 169.019531 235.105469 C 171.335938 231.875 173.71875 228.695312 176.167969 225.5625 C 178.621094 222.429688 181.136719 219.351562 183.714844 216.328125 C 186.296875 213.304688 188.941406 210.335938 191.648438 207.421875 C 194.351562 204.507812 197.121094 201.652344 199.945312 198.855469 C 202.773438 196.058594 205.65625 193.324219 208.597656 190.648438 C 211.542969 187.976562 214.539062 185.363281 217.589844 182.816406 C 220.644531 180.269531 223.75 177.785156 226.90625 175.371094 C 230.0625 172.953125 233.269531 170.605469 236.527344 168.324219 C 239.785156 166.042969 243.085938 163.828125 246.4375 161.6875 C 249.789062 159.546875 253.179688 157.476562 256.617188 155.476562 C 260.054688 153.480469 263.535156 151.554688 267.054688 149.703125 C 270.570312 147.851562 274.128906 146.074219 277.722656 144.375 C 281.316406 142.671875 284.945312 141.046875 288.605469 139.5 C 292.269531 137.953125 295.960938 136.480469 299.6875 135.089844 C 303.410156 133.699219 307.164062 132.382812 310.945312 131.152344 C 314.722656 129.917969 318.527344 128.765625 322.355469 127.691406 C 326.183594 126.617188 330.035156 125.628906 333.90625 124.71875 C 337.777344 123.808594 341.664062 122.980469 345.570312 122.234375 C 349.476562 121.488281 353.394531 120.824219 357.328125 120.242188 C 361.261719 119.664062 365.207031 119.164062 369.160156 118.753906 C 373.117188 118.339844 377.078125 118.007812 381.046875 117.761719 C 385.015625 117.515625 388.984375 117.351562 392.960938 117.273438 C 396.9375 117.195312 400.910156 117.199219 404.886719 117.289062 C 408.863281 117.378906 412.832031 117.550781 416.800781 117.808594 C 420.769531 118.066406 424.730469 118.40625 428.683594 118.832031 C 432.636719 119.253906 436.578125 119.761719 440.511719 120.355469 C 444.445312 120.945312 448.363281 121.617188 452.265625 122.375 C 456.167969 123.128906 460.054688 123.96875 463.921875 124.890625 C 467.789062 125.808594 471.636719 126.8125 475.464844 127.894531 C 479.289062 128.976562 483.089844 130.140625 486.867188 131.382812 C 490.644531 132.628906 494.394531 133.949219 498.113281 135.351562 C 501.835938 136.753906 505.523438 138.234375 509.183594 139.792969 C 517.414062 143.304688 525.464844 147.203125 533.324219 151.488281 C 541.179688 155.761719 548.804688 160.445312 556.203125 165.433594 C 563.597656 170.421875 570.746094 175.820312 577.632812 181.5 C 584.523438 187.179688 591.148438 193.210938 597.460938 199.53125 Z M 597.460938 199.53125 C 591.128906 193.230469 584.503906 187.246094 577.59375 181.570312 C 570.675781 175.917969 563.496094 170.625 556.046875 165.695312 C 541.121094 155.8125 525.351562 147.539062 508.734375 140.878906 C 504.605469 139.214844 500.433594 137.660156 496.21875 136.210938 C 492.007812 134.761719 487.761719 133.425781 483.480469 132.203125 C 478.710938 130.820312 473.910156 129.574219 469.074219 128.46875 C 464.238281 127.359375 459.371094 126.386719 454.480469 125.550781 C 449.589844 124.71875 444.675781 124.023438 439.746094 123.464844 C 434.816406 122.910156 429.871094 122.492188 424.917969 122.214844 C 419.960938 121.941406 415.003906 121.804688 410.039062 121.804688 C 405.078125 121.808594 400.121094 121.953125 395.164062 122.238281 C 390.210938 122.523438 385.269531 122.945312 380.339844 123.511719 C 375.410156 124.074219 370.496094 124.777344 365.605469 125.617188 C 360.714844 126.460938 355.851562 127.4375 351.019531 128.554688 C 346.183594 129.671875 341.382812 130.921875 336.617188 132.3125 C 331.855469 133.699219 327.132812 135.222656 322.453125 136.875 C 317.777344 138.53125 313.148438 140.316406 308.570312 142.234375 C 303.992188 144.152344 299.472656 146.195312 295.011719 148.367188 C 290.550781 150.539062 286.152344 152.835938 281.820312 155.257812 C 277.488281 157.679688 273.230469 160.21875 269.042969 162.882812 C 264.855469 165.542969 260.746094 168.324219 256.714844 171.21875 C 253.683594 173.398438 250.703125 175.640625 247.769531 177.945312 C 244.835938 180.25 241.953125 182.617188 239.117188 185.042969 C 236.285156 187.472656 233.503906 189.957031 230.773438 192.503906 C 228.046875 195.046875 225.371094 197.648438 222.753906 200.304688 C 220.132812 202.964844 217.570312 205.675781 215.066406 208.441406 C 212.5625 211.207031 210.117188 214.023438 207.730469 216.890625 C 205.34375 219.761719 203.019531 222.675781 200.757812 225.644531 C 198.492188 228.609375 196.292969 231.625 194.15625 234.683594 C 192.023438 237.742188 189.953125 240.847656 187.945312 243.992188 C 185.941406 247.140625 184.003906 250.328125 182.132812 253.554688 C 180.265625 256.785156 178.460938 260.050781 176.730469 263.355469 C 174.996094 266.660156 173.335938 270 171.742188 273.375 C 170.152344 276.75 168.632812 280.15625 167.183594 283.59375 C 165.734375 287.035156 164.359375 290.503906 163.058594 294 C 161.757812 297.496094 160.53125 301.019531 159.378906 304.566406 C 158.222656 308.117188 157.144531 311.6875 156.144531 315.28125 C 155.140625 318.875 154.214844 322.488281 153.367188 326.121094 C 152.515625 329.753906 151.742188 333.40625 151.046875 337.070312 C 150.351562 340.738281 149.734375 344.414062 149.191406 348.105469 C 148.652344 351.800781 148.1875 355.5 147.804688 359.210938 C 147.417969 362.921875 147.113281 366.640625 146.886719 370.367188 C 146.65625 374.089844 146.507812 377.816406 146.4375 381.546875 C 146.367188 385.277344 146.375 389.007812 146.460938 392.738281 C 146.550781 396.46875 146.714844 400.195312 146.960938 403.917969 C 147.203125 407.644531 147.527344 411.359375 147.925781 415.070312 C 148.328125 418.777344 148.808594 422.476562 149.363281 426.167969 C 149.921875 429.855469 150.554688 433.535156 151.265625 437.195312 C 151.980469 440.859375 152.769531 444.503906 153.632812 448.132812 C 154.5 451.761719 155.441406 455.375 156.460938 458.960938 C 157.480469 462.550781 158.574219 466.117188 159.742188 469.664062 C 160.910156 473.207031 162.152344 476.722656 163.46875 480.214844 C 164.785156 483.707031 166.175781 487.167969 167.640625 490.601562 C 168.484375 492.519531 169.277344 494.460938 170.179688 496.351562 C 171.082031 498.242188 171.917969 500.167969 172.855469 502.042969 C 173.792969 503.917969 174.671875 505.820312 175.671875 507.679688 C 176.667969 509.535156 177.582031 511.402344 178.609375 513.230469 C 182.625 520.585938 186.980469 527.734375 191.683594 534.675781 C 201.117188 548.574219 211.773438 561.464844 223.652344 573.339844 C 229.578125 579.265625 235.773438 584.902344 242.238281 590.246094 C 248.703125 595.59375 255.398438 600.617188 262.324219 605.324219 C 276.234375 614.757812 290.921875 622.78125 306.375 629.390625 C 309.808594 630.855469 313.269531 632.25 316.761719 633.574219 C 320.253906 634.894531 323.769531 636.140625 327.3125 637.3125 C 330.859375 638.484375 334.425781 639.582031 338.015625 640.601562 C 341.605469 641.625 345.214844 642.570312 348.847656 643.4375 C 352.476562 644.308594 356.121094 645.101562 359.785156 645.816406 C 363.449219 646.53125 367.128906 647.167969 370.816406 647.726562 C 374.507812 648.285156 378.210938 648.769531 381.917969 649.171875 C 385.628906 649.574219 389.347656 649.898438 393.074219 650.144531 C 396.796875 650.390625 400.527344 650.558594 404.257812 650.648438 C 407.988281 650.738281 411.722656 650.746094 415.453125 650.679688 C 419.183594 650.609375 422.914062 650.460938 426.640625 650.234375 C 430.367188 650.007812 434.085938 649.703125 437.796875 649.320312 C 441.511719 648.9375 445.214844 648.472656 448.910156 647.933594 C 452.601562 647.394531 456.28125 646.777344 459.949219 646.082031 C 463.617188 645.386719 467.269531 644.613281 470.902344 643.761719 C 474.539062 642.914062 478.152344 641.988281 481.75 640.984375 C 485.34375 639.984375 488.917969 638.90625 492.464844 637.75 C 496.015625 636.597656 499.539062 635.371094 503.039062 634.066406 C 506.539062 632.765625 510.007812 631.390625 513.445312 629.941406 C 516.886719 628.492188 520.292969 626.972656 523.671875 625.378906 C 527.046875 623.785156 530.386719 622.121094 533.691406 620.390625 C 537 618.65625 540.265625 616.851562 543.496094 614.980469 C 546.722656 613.109375 549.914062 611.167969 553.058594 609.164062 C 556.207031 607.15625 559.3125 605.082031 562.371094 602.945312 C 565.429688 600.808594 568.445312 598.605469 571.410156 596.339844 C 574.378906 594.078125 577.296875 591.75 580.164062 589.359375 C 583.035156 586.972656 585.851562 584.523438 588.617188 582.019531 C 591.382812 579.511719 594.09375 576.945312 596.75 574.324219 C 599.40625 571.703125 602.007812 569.023438 604.550781 566.292969 C 607.09375 563.5625 609.578125 560.777344 612.003906 557.941406 C 614.429688 555.105469 616.796875 552.21875 619.101562 549.28125 C 621.40625 546.34375 623.648438 543.359375 625.824219 540.328125 C 636.058594 526.082031 644.773438 510.964844 651.972656 494.96875 C 657.394531 482.902344 661.882812 470.496094 665.433594 457.75 C 668.988281 445.003906 671.566406 432.066406 673.171875 418.933594 C 674.789062 405.707031 675.40625 392.4375 675.023438 379.121094 C 674.640625 365.800781 673.257812 352.585938 670.878906 339.476562 C 669.300781 330.710938 667.28125 322.050781 664.8125 313.492188 C 663.570312 309.234375 662.253906 304.964844 660.804688 300.757812 C 659.355469 296.550781 657.800781 292.367188 656.132812 288.238281 C 655.28125 286.183594 654.480469 284.097656 653.574219 282.058594 C 652.667969 280.019531 651.816406 277.960938 650.855469 275.953125 C 649.890625 273.949219 648.988281 271.902344 647.96875 269.917969 C 646.949219 267.933594 646.003906 265.917969 644.933594 263.960938 C 640.789062 256.050781 636.25 248.371094 631.316406 240.929688 C 626.386719 233.480469 621.09375 226.296875 615.441406 219.382812 C 609.761719 212.488281 603.769531 205.871094 597.460938 199.53125 Z M 597.460938 199.53125 " clip-rule="nonzero"/></clipPath><clipPath id="80be858f89"><path d="M 472 36 L 782 36 L 782 345 L 472 345 Z M 472 36 " clip-rule="nonzero"/></clipPath><clipPath id="b8c1c6d7ec"><path d="M 791.078125 43.917969 L 481.898438 353.101562 L 459.621094 330.828125 L 768.804688 21.644531 Z M 791.078125 43.917969 " clip-rule="nonzero"/></clipPath><clipPath id="cc67939fd3"><path d="M 791.078125 43.917969 L 481.898438 353.101562 L 459.621094 330.828125 L 768.804688 21.644531 Z M 791.078125 43.917969 " clip-rule="nonzero"/></clipPath></defs><g clip-path="url(#3e6450f117)"><g clip-path="url(#640507a31d)"><g clip-path="url(#05fa4312f7)"><g clip-path="url(#de7359b462)"><path fill="#d4af37" d="M -164.964844 398.648438 L 398.179688 961.792969 L 961.324219 398.648438 L 398.179688 -164.5 Z M -164.964844 398.648438 " fill-opacity="1" fill-rule="nonzero"/></g></g></g></g><g clip-path="url(#80be858f89)"><g clip-path="url(#b8c1c6d7ec)"><g clip-path="url(#cc67939fd3)"><path fill="#d4af37" d="M 781.277344 36.109375 C 780.707031 36.695312 780.484375 37.5625 779.917969 38.148438 C 761.96875 56.585938 743.800781 74.800781 725.757812 93.144531 C 720.730469 98.25 684.839844 134.738281 663.082031 157.132812 L 483.480469 343.089844 C 481.664062 344.976562 479.296875 344.96875 478.902344 344.96875 C 478.875 344.96875 474.3125 343.070312 474.304688 343.058594 C 473.671875 341.535156 472.421875 340.132812 472.417969 338.484375 C 472.410156 335.207031 472.910156 335.246094 475.269531 332.96875 C 499.558594 309.550781 523.851562 286.144531 548.132812 262.71875 C 664.257812 150.675781 664.273438 150.695312 779.238281 37.46875 C 779.699219 37.015625 780.082031 36.46875 780.617188 36.109375 C 780.800781 35.988281 781.09375 36.234375 781.277344 36.109375 Z M 781.277344 36.109375 " fill-opacity="1" fill-rule="evenodd"/></g></g></g></svg>