<svg xmlns="http://www.w3.org/2000/svg" xmlns:xlink="http://www.w3.org/1999/xlink" width="1080" zoomAndPan="magnify" viewBox="0 0 810 809.999993" height="1080" preserveAspectRatio="xMidYMid meet" version="1.0"><defs><clipPath id="f98573be8b"><path d="M 55 128 L 668 128 L 668 741 L 55 741 Z M 55 128 " clip-rule="nonzero"/></clipPath><clipPath id="d9191977ac"><path d="M -72.453125 424.242188 L 368.785156 0.0625 L 808.824219 457.796875 L 367.585938 881.976562 Z M -72.453125 424.242188 " clip-rule="nonzero"/></clipPath><clipPath id="ab7db5f23e"><path d="M -72.453125 424.242188 L 368.785156 0.0625 L 808.824219 457.796875 L 367.585938 881.976562 Z M -72.453125 424.242188 " clip-rule="nonzero"/></clipPath><clipPath id="2e79fbb603"><path d="M 582.378906 222.300781 C 596.097656 236.554688 608.320312 251.992188 619.054688 268.609375 C 624.402344 276.890625 629.351562 285.441406 633.863281 294.210938 C 638.371094 302.980469 642.457031 311.988281 646.109375 321.148438 C 647.714844 325.195312 649.234375 329.273438 650.667969 333.382812 C 652.097656 337.492188 653.441406 341.628906 654.695312 345.792969 C 655.953125 349.960938 657.117188 354.152344 658.195312 358.367188 C 659.269531 362.585938 660.257812 366.820312 661.152344 371.082031 C 662.050781 375.339844 662.855469 379.613281 663.570312 383.90625 C 664.28125 388.199219 664.90625 392.503906 665.4375 396.824219 C 665.964844 401.140625 666.40625 405.46875 666.75 409.808594 C 667.097656 414.144531 667.351562 418.488281 667.511719 422.835938 C 667.675781 427.1875 667.742188 431.535156 667.71875 435.886719 C 667.695312 440.238281 667.578125 444.585938 667.367188 448.933594 C 667.160156 453.28125 666.859375 457.621094 666.464844 461.953125 C 666.070312 466.289062 665.585938 470.609375 665.007812 474.921875 C 664.425781 479.234375 663.757812 483.535156 662.996094 487.820312 C 662.234375 492.101562 661.382812 496.371094 660.441406 500.617188 C 659.496094 504.867188 658.464844 509.09375 657.339844 513.296875 C 656.21875 517.5 655.007812 521.679688 653.707031 525.832031 C 652.40625 529.984375 651.015625 534.105469 649.539062 538.199219 C 648.0625 542.292969 646.5 546.351562 644.851562 550.378906 C 643.199219 554.40625 641.464844 558.394531 639.648438 562.347656 C 637.828125 566.300781 635.925781 570.214844 633.9375 574.085938 C 631.953125 577.957031 629.886719 581.785156 627.734375 585.570312 C 625.585938 589.351562 623.359375 593.089844 621.050781 596.777344 C 618.742188 600.464844 616.355469 604.105469 613.890625 607.691406 C 611.429688 611.277344 608.890625 614.8125 606.277344 618.289062 C 603.664062 621.769531 600.976562 625.191406 598.21875 628.554688 C 595.457031 631.921875 592.628906 635.226562 589.726562 638.46875 C 586.828125 641.714844 583.859375 644.894531 580.824219 648.011719 C 577.789062 651.128906 574.6875 654.179688 571.523438 657.167969 C 568.355469 660.152344 565.128906 663.070312 561.839844 665.917969 C 558.550781 668.765625 555.199219 671.542969 551.792969 674.246094 C 548.382812 676.953125 544.917969 679.585938 541.398438 682.140625 C 537.878906 684.699219 534.304688 687.183594 530.679688 689.585938 C 522.28125 695.167969 513.621094 700.316406 504.710938 705.03125 C 495.796875 709.75 486.671875 714.011719 477.332031 717.820312 C 467.996094 721.628906 458.492188 724.964844 448.820312 727.824219 C 439.152344 730.683594 429.363281 733.058594 419.457031 734.945312 C 411.988281 736.375 404.476562 737.523438 396.921875 738.390625 C 389.371094 739.261719 381.792969 739.847656 374.195312 740.152344 C 366.597656 740.460938 359 740.480469 351.402344 740.222656 C 343.800781 739.960938 336.222656 739.417969 328.664062 738.59375 C 321.105469 737.769531 313.585938 736.667969 306.109375 735.28125 C 298.632812 733.898438 291.21875 732.238281 283.867188 730.304688 C 276.511719 728.367188 269.242188 726.160156 262.054688 723.683594 C 254.863281 721.207031 247.777344 718.464844 240.792969 715.460938 C 222.054688 707.386719 204.3125 697.53125 187.558594 685.886719 C 179.210938 680.089844 171.160156 673.882812 163.40625 667.273438 C 155.652344 660.660156 148.261719 653.699219 141.238281 646.390625 C 127.105469 631.683594 114.550781 615.734375 103.570312 598.542969 C 92.597656 581.351562 83.449219 563.238281 76.121094 544.203125 C 74.304688 539.476562 72.605469 534.707031 71.023438 529.898438 C 69.441406 525.089844 67.980469 520.242188 66.640625 515.363281 C 65.300781 510.480469 64.082031 505.566406 62.984375 500.625 C 61.886719 495.683594 60.914062 490.714844 60.0625 485.722656 C 59.210938 480.734375 58.484375 475.722656 57.878906 470.699219 C 57.277344 465.671875 56.800781 460.632812 56.449219 455.582031 C 56.09375 450.53125 55.867188 445.472656 55.765625 440.414062 C 55.664062 435.351562 55.6875 430.289062 55.835938 425.230469 C 55.984375 420.167969 56.257812 415.113281 56.65625 410.066406 C 57.058594 405.019531 57.582031 399.984375 58.230469 394.964844 C 58.878906 389.945312 59.652344 384.941406 60.550781 379.957031 C 61.445312 374.976562 62.46875 370.019531 63.609375 365.085938 C 64.753906 360.152344 66.015625 355.253906 67.402344 350.382812 C 68.789062 345.515625 70.292969 340.683594 71.921875 335.886719 C 73.546875 331.09375 75.289062 326.339844 77.148438 321.632812 C 79.011719 316.921875 80.988281 312.265625 83.078125 307.652344 C 91.4375 289.269531 101.535156 271.894531 113.367188 255.527344 C 125.136719 239.242188 138.375 224.253906 153.078125 210.558594 C 167.78125 196.863281 183.671875 184.722656 200.753906 174.136719 C 206.03125 170.882812 211.402344 167.789062 216.867188 164.859375 C 222.332031 161.933594 227.878906 159.171875 233.511719 156.578125 C 239.144531 153.984375 244.851562 151.566406 250.628906 149.320312 C 256.410156 147.074219 262.25 145.003906 268.15625 143.109375 C 274.058594 141.21875 280.015625 139.503906 286.023438 137.972656 C 292.03125 136.441406 298.082031 135.09375 304.171875 133.925781 C 310.261719 132.761719 316.378906 131.78125 322.527344 130.988281 C 328.679688 130.195312 334.847656 129.585938 341.03125 129.164062 C 347.21875 128.746094 353.410156 128.511719 359.609375 128.464844 C 365.8125 128.421875 372.007812 128.5625 378.199219 128.894531 C 384.390625 129.222656 390.566406 129.742188 396.726562 130.445312 C 402.886719 131.148438 409.019531 132.039062 415.125 133.117188 C 421.230469 134.191406 427.300781 135.453125 433.332031 136.894531 C 439.359375 138.339844 445.339844 139.964844 451.273438 141.773438 C 457.203125 143.578125 463.074219 145.5625 468.886719 147.722656 C 474.695312 149.886719 480.4375 152.222656 486.105469 154.730469 C 495.128906 158.730469 503.9375 163.164062 512.539062 168.03125 C 521.140625 172.898438 529.476562 178.171875 537.554688 183.851562 C 553.734375 195.226562 568.675781 208.042969 582.378906 222.300781 Z M 582.378906 222.300781 C 568.664062 208.046875 553.6875 195.269531 537.449219 183.976562 C 534.425781 181.875 531.367188 179.832031 528.269531 177.84375 C 525.171875 175.859375 522.035156 173.933594 518.867188 172.0625 C 515.695312 170.195312 512.492188 168.386719 509.253906 166.636719 C 506.019531 164.886719 502.75 163.199219 499.449219 161.570312 C 496.148438 159.941406 492.816406 158.378906 489.457031 156.875 C 486.101562 155.371094 482.714844 153.929688 479.300781 152.554688 C 475.886719 151.175781 472.453125 149.863281 468.988281 148.617188 C 465.527344 147.367188 462.042969 146.183594 458.539062 145.0625 C 455.03125 143.945312 451.507812 142.890625 447.960938 141.90625 C 444.417969 140.917969 440.855469 139.996094 437.273438 139.144531 C 433.695312 138.289062 430.101562 137.5 426.492188 136.78125 C 422.882812 136.0625 419.261719 135.410156 415.628906 134.824219 C 411.996094 134.238281 408.355469 133.722656 404.703125 133.273438 C 401.050781 132.824219 397.390625 132.441406 393.722656 132.128906 C 390.054688 131.816406 386.382812 131.570312 382.707031 131.394531 C 379.03125 131.21875 375.355469 131.113281 371.675781 131.074219 C 367.996094 131.035156 364.316406 131.066406 360.636719 131.164062 C 356.960938 131.261719 353.285156 131.429688 349.609375 131.667969 C 345.9375 131.902344 342.273438 132.207031 338.609375 132.578125 C 334.949219 132.953125 331.296875 133.394531 327.652344 133.902344 C 324.007812 134.410156 320.375 134.988281 316.75 135.632812 C 313.128906 136.277344 309.519531 136.988281 305.921875 137.765625 C 302.324219 138.546875 298.742188 139.394531 295.179688 140.304688 C 291.613281 141.21875 288.066406 142.195312 284.539062 143.242188 C 281.011719 144.289062 277.503906 145.398438 274.015625 146.574219 C 270.527344 147.75 267.0625 148.992188 263.625 150.296875 C 260.183594 151.601562 256.765625 152.96875 253.378906 154.402344 C 249.988281 155.835938 246.625 157.328125 243.292969 158.886719 C 239.957031 160.445312 236.65625 162.066406 233.382812 163.746094 C 230.109375 165.429688 226.867188 167.167969 223.65625 168.972656 C 220.449219 170.773438 217.277344 172.636719 214.136719 174.554688 C 210.996094 176.476562 207.894531 178.457031 204.832031 180.492188 C 188.613281 191.277344 173.59375 203.53125 159.777344 217.253906 C 145.960938 230.980469 133.601562 245.910156 122.707031 262.054688 C 111.898438 278.101562 102.75 295.046875 95.265625 312.886719 C 87.777344 330.730469 82.097656 349.128906 78.222656 368.085938 C 76.78125 375.128906 75.59375 382.21875 74.667969 389.351562 C 73.738281 396.484375 73.066406 403.640625 72.65625 410.820312 C 72.246094 418 72.09375 425.183594 72.203125 432.375 C 72.3125 439.566406 72.683594 446.746094 73.3125 453.910156 C 73.941406 461.074219 74.828125 468.207031 75.972656 475.304688 C 77.117188 482.40625 78.519531 489.457031 80.175781 496.453125 C 81.832031 503.453125 83.738281 510.382812 85.894531 517.242188 C 88.050781 524.105469 90.453125 530.878906 93.101562 537.566406 C 96.640625 546.445312 100.59375 555.140625 104.964844 563.652344 C 109.335938 572.164062 114.113281 580.429688 119.296875 588.441406 C 129.699219 604.542969 141.539062 619.507812 154.828125 633.328125 C 161.449219 640.214844 168.394531 646.777344 175.65625 653.007812 C 182.917969 659.238281 190.453125 665.101562 198.261719 670.59375 C 204.140625 674.722656 210.160156 678.628906 216.320312 682.316406 C 222.484375 686.003906 228.769531 689.464844 235.183594 692.695312 C 241.597656 695.921875 248.121094 698.914062 254.753906 701.671875 C 261.382812 704.425781 268.109375 706.933594 274.921875 709.199219 C 281.738281 711.464844 288.625 713.476562 295.585938 715.242188 C 302.546875 717.003906 309.5625 718.511719 316.636719 719.761719 C 323.707031 721.015625 330.8125 722.007812 337.957031 722.742188 C 345.101562 723.476562 352.261719 723.949219 359.4375 724.160156 C 365.476562 724.347656 371.515625 724.347656 377.550781 724.167969 C 383.589844 723.984375 389.617188 723.617188 395.632812 723.070312 C 401.648438 722.519531 407.640625 721.785156 413.609375 720.871094 C 419.582031 719.953125 425.519531 718.859375 431.421875 717.578125 C 437.324219 716.300781 443.183594 714.84375 449 713.210938 C 454.8125 711.574219 460.574219 709.761719 466.277344 707.777344 C 471.984375 705.789062 477.621094 703.628906 483.195312 701.300781 C 488.765625 698.96875 494.261719 696.46875 499.683594 693.804688 C 505.101562 691.136719 510.4375 688.308594 515.683594 685.316406 C 520.929688 682.324219 526.082031 679.175781 531.136719 675.871094 C 536.195312 672.5625 541.144531 669.105469 545.988281 665.5 C 550.832031 661.890625 555.5625 658.136719 560.179688 654.242188 C 564.792969 650.34375 569.285156 646.3125 573.65625 642.140625 C 578.023438 637.96875 582.261719 633.667969 586.371094 629.242188 C 590.476562 624.8125 594.445312 620.261719 598.273438 615.589844 C 602.105469 610.917969 605.785156 606.132812 609.324219 601.238281 C 620.796875 585.382812 630.589844 568.550781 638.695312 550.738281 C 641.242188 545.148438 643.609375 539.484375 645.800781 533.746094 C 647.992188 528.007812 650.007812 522.210938 651.835938 516.347656 C 653.667969 510.484375 655.316406 504.570312 656.78125 498.605469 C 658.246094 492.640625 659.523438 486.636719 660.613281 480.59375 C 661.703125 474.546875 662.605469 468.476562 663.320312 462.375 C 664.035156 456.277344 664.558594 450.160156 664.890625 444.027344 C 665.222656 437.894531 665.367188 431.757812 665.316406 425.613281 C 665.269531 419.472656 665.03125 413.339844 664.601562 407.210938 C 664.171875 401.085938 663.550781 394.976562 662.742188 388.890625 C 661.933594 382.800781 660.933594 376.746094 659.746094 370.71875 C 658.5625 364.691406 657.191406 358.707031 655.632812 352.765625 C 654.074219 346.828125 652.332031 340.9375 650.410156 335.105469 C 648.484375 329.273438 646.382812 323.507812 644.097656 317.804688 C 641.816406 312.101562 639.359375 306.476562 636.726562 300.929688 C 634.09375 295.378906 631.292969 289.917969 628.320312 284.542969 C 625.351562 279.167969 622.214844 273.890625 618.914062 268.707031 C 608.265625 252.035156 596.085938 236.566406 582.378906 222.300781 Z M 582.378906 222.300781 " clip-rule="nonzero"/></clipPath><clipPath id="74bee13e6c"><path d="M 451 42 L 780 42 L 780 371 L 451 371 Z M 451 42 " clip-rule="nonzero"/></clipPath><clipPath id="f1ea8af1d4"><path d="M 445.660156 360.382812 L 771.554688 34.484375 L 790.625 53.554688 L 464.726562 379.449219 Z M 445.660156 360.382812 " clip-rule="nonzero"/></clipPath><clipPath id="abd379a16c"><path d="M 445.660156 360.382812 L 771.554688 34.484375 L 790.625 53.554688 L 464.726562 379.449219 Z M 445.660156 360.382812 " clip-rule="nonzero"/></clipPath><clipPath id="c2392ad7ea"><path d="M 58 128 L 671 128 L 671 741 L 58 741 Z M 58 128 " clip-rule="nonzero"/></clipPath><clipPath id="739e24888e"><path d="M -69.988281 424.242188 L 371.253906 0.0625 L 811.292969 457.796875 L 370.054688 881.976562 Z M -69.988281 424.242188 " clip-rule="nonzero"/></clipPath><clipPath id="1d542e6c1b"><path d="M -69.988281 424.242188 L 371.253906 0.0625 L 811.292969 457.796875 L 370.054688 881.976562 Z M -69.988281 424.242188 " clip-rule="nonzero"/></clipPath><clipPath id="fc3b42b8c3"><path d="M 584.847656 222.300781 C 598.5625 236.554688 610.785156 251.992188 621.519531 268.609375 C 626.867188 276.890625 631.820312 285.441406 636.328125 294.210938 C 640.835938 302.980469 644.921875 311.988281 648.578125 321.148438 C 650.183594 325.195312 651.699219 329.273438 653.132812 333.382812 C 654.5625 337.492188 655.90625 341.628906 657.164062 345.792969 C 658.417969 349.960938 659.582031 354.152344 660.660156 358.367188 C 661.738281 362.585938 662.722656 366.820312 663.621094 371.082031 C 664.515625 375.339844 665.320312 379.613281 666.035156 383.90625 C 666.75 388.199219 667.371094 392.503906 667.902344 396.824219 C 668.433594 401.140625 668.871094 405.46875 669.21875 409.808594 C 669.5625 414.144531 669.816406 418.488281 669.980469 422.835938 C 670.140625 427.1875 670.207031 431.535156 670.183594 435.886719 C 670.160156 440.238281 670.042969 444.585938 669.835938 448.933594 C 669.625 453.28125 669.324219 457.621094 668.929688 461.953125 C 668.535156 466.289062 668.050781 470.609375 667.472656 474.921875 C 666.894531 479.234375 666.222656 483.535156 665.464844 487.820312 C 664.703125 492.101562 663.851562 496.371094 662.90625 500.617188 C 661.964844 504.867188 660.929688 509.09375 659.808594 513.296875 C 658.683594 517.5 657.472656 521.679688 656.171875 525.832031 C 654.871094 529.984375 653.480469 534.105469 652.003906 538.199219 C 650.527344 542.292969 648.964844 546.351562 647.316406 550.378906 C 645.667969 554.40625 643.933594 558.394531 642.113281 562.347656 C 640.292969 566.300781 638.390625 570.214844 636.40625 574.085938 C 634.417969 577.957031 632.351562 581.785156 630.203125 585.570312 C 628.054688 589.351562 625.824219 593.089844 623.515625 596.777344 C 621.207031 600.464844 618.820312 604.105469 616.359375 607.691406 C 613.894531 611.277344 611.355469 614.8125 608.742188 618.289062 C 606.128906 621.769531 603.441406 625.191406 600.683594 628.554688 C 597.925781 631.921875 595.09375 635.226562 592.195312 638.46875 C 589.292969 641.714844 586.328125 644.894531 583.289062 648.011719 C 580.253906 651.128906 577.152344 654.179688 573.988281 657.167969 C 570.824219 660.152344 567.59375 663.070312 564.304688 665.917969 C 561.015625 668.765625 557.667969 671.542969 554.257812 674.246094 C 550.851562 676.953125 547.386719 679.585938 543.867188 682.140625 C 540.34375 684.699219 536.773438 687.183594 533.144531 689.585938 C 524.746094 695.167969 516.089844 700.316406 507.175781 705.03125 C 498.261719 709.75 489.136719 714.011719 479.800781 717.820312 C 470.460938 721.628906 460.957031 724.964844 451.289062 727.824219 C 441.617188 730.683594 431.828125 733.058594 421.921875 734.945312 C 414.453125 736.375 406.945312 737.523438 399.390625 738.390625 C 391.835938 739.261719 384.261719 739.847656 376.664062 740.152344 C 369.066406 740.460938 361.464844 740.480469 353.867188 740.222656 C 346.269531 739.960938 338.6875 739.417969 331.128906 738.59375 C 323.570312 737.769531 316.054688 736.667969 308.578125 735.28125 C 301.101562 733.898438 293.6875 732.238281 286.332031 730.304688 C 278.980469 728.367188 271.707031 726.160156 264.519531 723.683594 C 257.332031 721.207031 250.242188 718.464844 243.257812 715.460938 C 224.523438 707.386719 206.777344 697.53125 190.023438 685.886719 C 181.675781 680.089844 173.628906 673.882812 165.871094 667.273438 C 158.117188 660.660156 150.730469 653.699219 143.707031 646.390625 C 129.574219 631.683594 117.015625 615.734375 106.039062 598.542969 C 95.066406 581.351562 85.914062 563.238281 78.585938 544.203125 C 76.769531 539.476562 75.070312 534.707031 73.488281 529.898438 C 71.910156 525.089844 70.449219 520.242188 69.105469 515.363281 C 67.765625 510.480469 66.546875 505.566406 65.449219 500.625 C 64.351562 495.683594 63.378906 490.714844 62.527344 485.722656 C 61.675781 480.734375 60.949219 475.722656 60.347656 470.699219 C 59.746094 465.671875 59.265625 460.632812 58.914062 455.582031 C 58.5625 450.53125 58.332031 445.472656 58.230469 440.414062 C 58.128906 435.351562 58.152344 430.289062 58.300781 425.230469 C 58.449219 420.167969 58.726562 415.113281 59.125 410.066406 C 59.523438 405.019531 60.046875 399.984375 60.695312 394.964844 C 61.347656 389.945312 62.117188 384.941406 63.015625 379.957031 C 63.914062 374.976562 64.933594 370.019531 66.078125 365.085938 C 67.21875 360.152344 68.484375 355.253906 69.871094 350.382812 C 71.253906 345.515625 72.761719 340.683594 74.386719 335.886719 C 76.011719 331.09375 77.753906 326.339844 79.617188 321.632812 C 81.476562 316.921875 83.453125 312.265625 85.546875 307.652344 C 93.902344 289.269531 104 271.894531 115.832031 255.527344 C 127.605469 239.242188 140.839844 224.253906 155.542969 210.558594 C 170.25 196.863281 186.140625 184.722656 203.21875 174.136719 C 208.496094 170.882812 213.867188 167.789062 219.332031 164.859375 C 224.796875 161.933594 230.347656 159.171875 235.980469 156.578125 C 241.613281 153.984375 247.316406 151.566406 253.097656 149.320312 C 258.875 147.074219 264.714844 145.003906 270.621094 143.109375 C 276.523438 141.21875 282.480469 139.503906 288.488281 137.972656 C 294.496094 136.441406 300.546875 135.09375 306.636719 133.925781 C 312.726562 132.761719 318.847656 131.78125 324.996094 130.988281 C 331.144531 130.195312 337.3125 129.585938 343.5 129.164062 C 349.683594 128.746094 355.878906 128.511719 362.078125 128.464844 C 368.277344 128.421875 374.472656 128.5625 380.664062 128.894531 C 386.855469 129.222656 393.03125 129.742188 399.191406 130.445312 C 405.351562 131.148438 411.484375 132.039062 417.59375 133.117188 C 423.699219 134.191406 429.765625 135.453125 435.796875 136.894531 C 441.828125 138.339844 447.808594 139.964844 453.738281 141.773438 C 459.667969 143.578125 465.539062 145.5625 471.351562 147.722656 C 477.164062 149.886719 482.902344 152.222656 488.574219 154.730469 C 497.59375 158.730469 506.40625 163.164062 515.003906 168.03125 C 523.605469 172.898438 531.945312 178.171875 540.019531 183.851562 C 556.203125 195.226562 571.144531 208.042969 584.847656 222.300781 Z M 584.847656 222.300781 C 571.132812 208.046875 556.15625 195.269531 539.914062 183.976562 C 536.894531 181.875 533.832031 179.832031 530.734375 177.84375 C 527.636719 175.859375 524.503906 173.933594 521.332031 172.0625 C 518.164062 170.195312 514.960938 168.386719 511.722656 166.636719 C 508.484375 164.886719 505.214844 163.199219 501.914062 161.570312 C 498.613281 159.941406 495.285156 158.378906 491.925781 156.875 C 488.566406 155.371094 485.179688 153.929688 481.769531 152.554688 C 478.355469 151.175781 474.917969 149.863281 471.457031 148.617188 C 467.996094 147.367188 464.511719 146.183594 461.003906 145.0625 C 457.5 143.945312 453.972656 142.890625 450.429688 141.90625 C 446.882812 140.917969 443.320312 139.996094 439.742188 139.144531 C 436.164062 138.289062 432.566406 137.5 428.960938 136.78125 C 425.351562 136.0625 421.730469 135.410156 418.097656 134.824219 C 414.464844 134.238281 410.820312 133.722656 407.167969 133.273438 C 403.515625 132.824219 399.855469 132.441406 396.1875 132.128906 C 392.523438 131.816406 388.851562 131.570312 385.175781 131.394531 C 381.5 131.21875 377.820312 131.113281 374.140625 131.074219 C 370.460938 131.035156 366.78125 131.066406 363.105469 131.164062 C 359.425781 131.261719 355.75 131.429688 352.078125 131.667969 C 348.40625 131.902344 344.738281 132.207031 341.078125 132.578125 C 337.417969 132.953125 333.761719 133.394531 330.117188 133.902344 C 326.472656 134.410156 322.839844 134.988281 319.21875 135.632812 C 315.59375 136.277344 311.984375 136.988281 308.386719 137.765625 C 304.789062 138.546875 301.210938 139.394531 297.644531 140.304688 C 294.078125 141.21875 290.535156 142.195312 287.003906 143.242188 C 283.476562 144.289062 279.96875 145.398438 276.480469 146.574219 C 272.996094 147.75 269.53125 148.992188 266.089844 150.296875 C 262.648438 151.601562 259.234375 152.96875 255.84375 154.402344 C 252.453125 155.835938 249.09375 157.328125 245.757812 158.886719 C 242.425781 160.445312 239.121094 162.066406 235.847656 163.746094 C 232.574219 165.429688 229.332031 167.167969 226.125 168.972656 C 222.914062 170.773438 219.742188 172.636719 216.601562 174.554688 C 213.464844 176.476562 210.363281 178.457031 207.296875 180.492188 C 191.078125 191.277344 176.0625 203.53125 162.242188 217.253906 C 148.425781 230.980469 136.070312 245.910156 125.171875 262.054688 C 114.363281 278.101562 105.214844 295.046875 97.730469 312.886719 C 90.246094 330.730469 84.566406 349.128906 80.6875 368.085938 C 79.246094 375.128906 78.0625 382.21875 77.132812 389.351562 C 76.203125 396.484375 75.535156 403.640625 75.121094 410.820312 C 74.710938 418 74.5625 425.183594 74.671875 432.375 C 74.78125 439.566406 75.148438 446.746094 75.777344 453.910156 C 76.40625 461.074219 77.292969 468.207031 78.4375 475.304688 C 79.585938 482.40625 80.984375 489.457031 82.640625 496.453125 C 84.296875 503.453125 86.203125 510.382812 88.359375 517.242188 C 90.519531 524.105469 92.921875 530.878906 95.566406 537.566406 C 99.105469 546.445312 103.058594 555.140625 107.429688 563.652344 C 111.800781 572.164062 116.578125 580.429688 121.761719 588.441406 C 132.164062 604.542969 144.007812 619.507812 157.292969 633.328125 C 163.917969 640.214844 170.859375 646.777344 178.121094 653.007812 C 185.382812 659.238281 192.917969 665.101562 200.730469 670.59375 C 206.605469 674.722656 212.625 678.628906 218.789062 682.316406 C 224.949219 686.003906 231.238281 689.464844 237.652344 692.695312 C 244.066406 695.921875 250.585938 698.914062 257.21875 701.671875 C 263.851562 704.425781 270.574219 706.933594 277.390625 709.199219 C 284.203125 711.464844 291.089844 713.476562 298.050781 715.242188 C 305.015625 717.003906 312.03125 718.511719 319.101562 719.761719 C 326.171875 721.015625 333.28125 722.007812 340.421875 722.742188 C 347.566406 723.476562 354.726562 723.949219 361.90625 724.160156 C 367.941406 724.347656 373.980469 724.347656 380.019531 724.167969 C 386.054688 723.984375 392.082031 723.617188 398.097656 723.070312 C 404.113281 722.519531 410.105469 721.785156 416.078125 720.871094 C 422.046875 719.953125 427.984375 718.859375 433.886719 717.578125 C 439.792969 716.300781 445.652344 714.84375 451.464844 713.210938 C 457.28125 711.574219 463.039062 709.761719 468.746094 707.777344 C 474.449219 705.789062 480.085938 703.628906 485.660156 701.300781 C 491.234375 698.96875 496.730469 696.46875 502.148438 693.804688 C 507.570312 691.136719 512.902344 688.308594 518.148438 685.316406 C 523.398438 682.324219 528.550781 679.175781 533.605469 675.871094 C 538.660156 672.5625 543.609375 669.105469 548.453125 665.5 C 553.300781 661.890625 558.027344 658.136719 562.644531 654.242188 C 567.261719 650.34375 571.753906 646.3125 576.121094 642.140625 C 580.492188 637.96875 584.730469 633.667969 588.835938 629.242188 C 592.941406 624.8125 596.910156 620.261719 600.742188 615.589844 C 604.570312 610.917969 608.253906 606.132812 611.789062 601.238281 C 623.265625 585.382812 633.054688 568.550781 641.164062 550.738281 C 643.707031 545.148438 646.074219 539.484375 648.269531 533.746094 C 650.460938 528.007812 652.472656 522.210938 654.304688 516.347656 C 656.136719 510.484375 657.785156 504.570312 659.246094 498.605469 C 660.710938 492.640625 661.988281 486.636719 663.082031 480.59375 C 664.171875 474.546875 665.074219 468.476562 665.785156 462.375 C 666.5 456.277344 667.023438 450.160156 667.355469 444.027344 C 667.691406 437.894531 667.832031 431.757812 667.785156 425.613281 C 667.734375 419.472656 667.496094 413.339844 667.066406 407.210938 C 666.636719 401.085938 666.015625 394.976562 665.207031 388.890625 C 664.398438 382.800781 663.398438 376.746094 662.214844 370.71875 C 661.027344 364.691406 659.65625 358.707031 658.097656 352.765625 C 656.539062 346.828125 654.800781 340.9375 652.875 335.105469 C 650.953125 329.273438 648.847656 323.507812 646.566406 317.804688 C 644.285156 312.101562 641.824219 306.476562 639.195312 300.929688 C 636.5625 295.378906 633.761719 289.917969 630.789062 284.542969 C 627.816406 279.167969 624.679688 273.890625 621.378906 268.707031 C 610.730469 252.035156 598.554688 236.566406 584.847656 222.300781 Z M 584.847656 222.300781 " clip-rule="nonzero"/></clipPath><clipPath id="1e712d3c78"><path d="M 454 42 L 783 42 L 783 371 L 454 371 Z M 454 42 " clip-rule="nonzero"/></clipPath><clipPath id="0e4cd204e4"><path d="M 448.125 360.382812 L 774.019531 34.484375 L 793.089844 53.554688 L 467.191406 379.449219 Z M 448.125 360.382812 " clip-rule="nonzero"/></clipPath><clipPath id="6b6f4f412a"><path d="M 448.125 360.382812 L 774.019531 34.484375 L 793.089844 53.554688 L 467.191406 379.449219 Z M 448.125 360.382812 " clip-rule="nonzero"/></clipPath><clipPath id="836e3c660d"><path d="M 450 23 L 802 23 L 802 374 L 450 374 Z M 450 23 " clip-rule="nonzero"/></clipPath><clipPath id="b770e84178"><path d="M 444.347656 362.769531 L 792.78125 14.339844 L 813.003906 34.5625 L 464.574219 382.996094 Z M 444.347656 362.769531 " clip-rule="nonzero"/></clipPath><clipPath id="016dfbf251"><path d="M 444.347656 362.769531 L 792.78125 14.339844 L 813.003906 34.5625 L 464.574219 382.996094 Z M 444.347656 362.769531 " clip-rule="nonzero"/></clipPath><clipPath id="afea4965f8"><rect x="0" width="810" y="0" height="810"/></clipPath></defs><g transform="matrix(1, 0, 0, 1, 0, 0.000000000000039746)"><g clip-path="url(#afea4965f8)"><g clip-path="url(#f98573be8b)"><g clip-path="url(#d9191977ac)"><g clip-path="url(#ab7db5f23e)"><g clip-path="url(#2e79fbb603)"><path fill="#d4af37" d="M -250.128906 422.394531 L 349.644531 1046.285156 L 973.535156 446.511719 L 373.761719 -177.382812 Z M -250.128906 422.394531 " fill-opacity="1" fill-rule="nonzero"/></g></g></g></g><g clip-path="url(#74bee13e6c)"><g clip-path="url(#f1ea8af1d4)"><g clip-path="url(#abd379a16c)"><path fill="#d4af37" d="M 451.765625 366.230469 L 779.601562 42.945312 L 456.3125 370.78125 Z M 451.765625 366.230469 " fill-opacity="1" fill-rule="evenodd"/></g></g></g><g clip-path="url(#c2392ad7ea)"><g clip-path="url(#739e24888e)"><g clip-path="url(#1d542e6c1b)"><g clip-path="url(#fc3b42b8c3)"><path fill="#d4af37" d="M -247.664062 422.394531 L 352.109375 1046.285156 L 976 446.511719 L 376.226562 -177.382812 Z M -247.664062 422.394531 " fill-opacity="1" fill-rule="nonzero"/></g></g></g></g><g clip-path="url(#1e712d3c78)"><g clip-path="url(#0e4cd204e4)"><g clip-path="url(#6b6f4f412a)"><path fill="#d4af37" d="M 454.230469 366.230469 L 782.066406 42.945312 L 458.777344 370.78125 Z M 454.230469 366.230469 " fill-opacity="1" fill-rule="evenodd"/></g></g></g><g clip-path="url(#836e3c660d)"><g clip-path="url(#b770e84178)"><g clip-path="url(#016dfbf251)"><path fill="#d4af37" d="M 450.878906 369.023438 L 801.503906 23.261719 L 455.742188 373.890625 Z M 450.878906 369.023438 " fill-opacity="1" fill-rule="evenodd"/></g></g></g></g></g></svg>